<svg width="50" height="51" viewBox="0 0 50 51" fill="none" xmlns="http://www.w3.org/2000/svg">
<path d="M15.373 1.06666C14.4657 1.20789 13.1552 1.64165 12.248 2.09559C9.6875 3.37671 7.78226 5.62623 6.9254 8.38013C6.5625 9.5402 6.45161 10.5187 6.45161 12.5059C6.45161 13.8778 6.42137 14.2813 6.31048 14.3721C6.22984 14.4327 6.06855 14.7252 5.9375 15.0177C5.59476 15.7945 5.60484 16.8638 5.95766 17.6203C6.43145 18.6291 7.43952 19.3655 8.53831 19.4966C9.02218 19.547 9.04234 19.5672 9.15323 19.9808C9.53629 21.4031 10.2923 22.6843 11.3911 23.7535L12.0968 24.4395V25.1961V25.9627L10.1109 26.0132C7.92339 26.0636 7.24798 26.1846 5.83669 26.7899C3.51815 27.7785 1.46169 29.9473 0.604839 32.3078C0.0100806 33.9621 0 34.1235 0 42.698V50.5057L0.252016 50.7478L0.493952 51H13.9617H27.4194V50.193V49.386H24.1532C21.119 49.386 20.877 49.3759 20.8266 49.2044C20.7964 49.1136 20.2722 46.047 19.6573 42.4054L18.5484 35.7779L19.0121 34.8398C19.2641 34.3253 19.496 33.8915 19.5061 33.8714C19.5262 33.8512 19.9899 34.0731 20.5544 34.3455C21.1089 34.6279 21.6734 34.8599 21.8044 34.8599C22.3387 34.8599 22.4194 34.6884 23.5887 31.1578C24.2137 29.2815 24.7581 27.7079 24.7984 27.6574C24.9093 27.5364 26.4113 27.8592 27.1875 28.1719C27.5403 28.3131 28.0948 28.6057 28.4274 28.8175L29.0323 29.2109V39.8533V50.5057L29.2843 50.7478L29.5262 51H39.5161H49.5061L49.748 50.7478L50 50.5057V37.2809V24.0562L49.748 23.8141L49.5061 23.5619H39.5161H29.5262L29.2843 23.8141C29.0423 24.0562 29.0323 24.0965 29.0323 25.6702V27.2741L28.3569 26.9412C26.9254 26.2452 25.5544 25.9829 23.2964 25.9829H21.7742V25.186V24.379L22.2379 24.0057C23.2359 23.1886 24.2036 21.6957 24.6573 20.2935L24.879 19.5874L25.4738 19.4663C26.6431 19.2242 27.4294 18.6291 27.9133 17.6102C28.2561 16.8638 28.2661 15.7844 27.9335 15.0177C27.8024 14.7252 27.6411 14.4327 27.5605 14.3721C27.4496 14.2813 27.4194 13.8778 27.4194 12.4757C27.4194 10.4985 27.2681 9.30819 26.8649 8.12794C25.6956 4.678 22.9839 2.18638 19.4052 1.25832C18.4778 1.02631 16.3407 0.915348 15.373 1.06666ZM18.498 2.73111C22.1069 3.36662 25.0202 6.28192 25.6552 9.89326C25.7359 10.3775 25.8065 11.3257 25.8065 11.9814C25.8065 13.1919 25.8065 13.1919 25.5847 13.1314C25.4536 13.1011 25.2823 13.0708 25.1915 13.0708C25.0907 13.0708 24.9899 12.9599 24.9597 12.8186C24.869 12.4656 24.5464 12.2941 23.8004 12.2235C23.0544 12.1529 22.2278 11.7998 21.6129 11.3055C21.3811 11.1139 20.8871 10.549 20.5141 10.0446C19.5061 8.68275 19.2036 8.68275 18.1956 10.0345C17.379 11.1441 16.9859 11.4972 16.129 11.9007L15.4738 12.2134L12.369 12.2638L9.25403 12.3143L9.0625 12.5564C8.96169 12.6875 8.87097 12.8489 8.87097 12.9296C8.87097 13.0103 8.79032 13.0708 8.6996 13.0708C8.59879 13.0708 8.41734 13.1011 8.29637 13.1314C8.06452 13.1919 8.06452 13.1919 8.06452 11.9814C8.06452 9.09634 8.90121 6.9477 10.7258 5.15211C12.7823 3.11443 15.625 2.23682 18.498 2.73111ZM19.7681 11.7191C20.4234 12.6068 21.7137 13.434 22.8629 13.6963L23.3871 13.8274V16.198C23.3871 18.9821 23.2863 19.5874 22.6613 20.8382C21.0282 24.1066 16.8851 25.3373 13.7097 23.4913C12.7016 22.9062 11.7036 21.8369 11.1996 20.8282C10.5847 19.5773 10.4839 18.962 10.4839 16.2282V13.898L13.0847 13.8577C15.3931 13.8173 15.7359 13.7871 16.2399 13.6055C17.4194 13.1616 18.3065 12.5564 18.9214 11.7494C19.123 11.477 19.3246 11.2551 19.3548 11.2551C19.3952 11.2551 19.5766 11.4669 19.7681 11.7191ZM8.87097 16.2989C8.87097 18.0843 8.88105 18.044 8.23589 17.7716C6.97581 17.2471 6.96573 15.3708 8.21573 14.8261C8.88105 14.5335 8.87097 14.5134 8.87097 16.2989ZM25.8972 14.9673C26.3911 15.3304 26.5625 15.6734 26.5625 16.2989C26.5625 16.7427 26.5121 16.9646 26.3508 17.1664C26.0686 17.5598 25.7157 17.8019 25.3327 17.8725L25 17.933V16.2989V14.6546L25.3327 14.7252C25.504 14.7555 25.7661 14.8664 25.8972 14.9673ZM33.871 26.5377C33.871 27.8592 33.8811 27.9197 34.123 28.1517L34.3649 28.4039H39.5161H44.6673L44.9093 28.1517C45.1512 27.9197 45.1613 27.8592 45.1613 26.5377V25.1759H46.7742H48.3871V37.2809V49.386H39.5161H30.6452V37.2809V25.1759H32.2581H33.871V26.5377ZM43.5484 25.9829V26.7899H39.5161H35.4839V25.9829V25.1759H39.5161H43.5484V25.9829ZM15.504 25.8417C16.8448 26.0939 18.3972 25.9728 19.6371 25.4987L20.1613 25.2969V25.9022V26.5074L18.5786 28.414C17.7016 29.4631 16.9657 30.3205 16.9355 30.3205C16.9052 30.3205 16.1694 29.4631 15.2923 28.414L13.7097 26.5074V25.9022V25.2969L14.244 25.4987C14.5262 25.6097 15.1008 25.761 15.504 25.8417ZM10.252 31.0771C11.4315 34.6279 11.5423 34.8599 12.0565 34.8599C12.1976 34.8599 12.752 34.638 13.2964 34.3556L14.3044 33.8613L14.8085 34.8196L15.3226 35.7779L14.2137 42.355C13.6089 45.9764 13.0847 49.0329 13.0544 49.154L13.004 49.386H9.72782H6.45161V43.737V38.0879H5.64516H4.83871V43.737V49.386H3.22581H1.60282L1.64315 41.7901C1.67339 33.3266 1.63306 33.8411 2.40927 32.1867C3.47782 29.917 5.51411 28.3131 8.06452 27.7381C9.14315 27.496 8.96169 27.2136 10.252 31.0771ZM14.0625 29.4328C14.8992 30.4416 15.5847 31.2889 15.6048 31.3192C15.6351 31.3999 12.621 32.9029 12.5706 32.8424C12.5504 32.8122 12.1371 31.6218 11.6633 30.1894L10.8065 27.5969L11.6734 27.607H12.5504L14.0625 29.4328ZM22.2177 30.139C21.744 31.5411 21.3206 32.7315 21.2702 32.7718C21.1895 32.8626 18.2258 31.4201 18.2661 31.3091C18.2863 31.2688 18.9819 30.4214 19.8085 29.4227L21.3206 27.607L22.1976 27.5969H23.0746L22.2177 30.139ZM17.4899 32.8122C17.7923 32.9635 18.0444 33.1249 18.0444 33.1652C18.0444 33.2157 17.8629 33.6091 17.6411 34.0529C17.2681 34.7893 17.2077 34.8599 16.9355 34.8599C16.6633 34.8599 16.6028 34.7893 16.2298 34.0529C16.0081 33.6091 15.8266 33.2157 15.8266 33.1652C15.8266 33.1047 16.7137 32.6003 16.9052 32.5499C16.9254 32.5398 17.1774 32.6608 17.4899 32.8122ZM17.0867 36.6959C17.1774 37.1095 19.1532 49.0733 19.1532 49.2347C19.1532 49.3658 18.8609 49.386 16.9355 49.386C15.0101 49.386 14.7177 49.3658 14.7177 49.2347C14.7177 49.0733 16.6936 37.1095 16.7843 36.6959C16.8145 36.5748 16.8851 36.4739 16.9355 36.4739C16.9859 36.4739 17.0565 36.5748 17.0867 36.6959Z" fill="#0073E6"/>
<path d="M32.5101 30.2701C32.2581 30.5122 32.2581 30.5323 32.2581 32.4389C32.2581 35.0314 32.0867 34.8599 34.6774 34.8599C37.2682 34.8599 37.0968 35.0314 37.0968 32.4389C37.0968 29.8464 37.2682 30.0179 34.6774 30.0179C32.7722 30.0179 32.752 30.0179 32.5101 30.2701ZM35.4839 32.4389V33.2459H34.6774H33.871V32.4389V31.6319H34.6774H35.4839V32.4389Z" fill="#0073E6"/>
<path d="M38.7097 30.8249V31.6319H42.7419H46.7742V30.8249V30.0179H42.7419H38.7097V30.8249Z" fill="#0073E6"/>
<path d="M38.7097 34.0529V34.8599H42.7419H46.7742V34.0529V33.2459H42.7419H38.7097V34.0529Z" fill="#0073E6"/>
<path d="M32.5101 36.7261C32.2581 36.9682 32.2581 36.9884 32.2581 38.8949C32.2581 41.4874 32.0867 41.316 34.6774 41.316C37.2682 41.316 37.0968 41.4874 37.0968 38.8949C37.0968 36.3024 37.2682 36.4739 34.6774 36.4739C32.7722 36.4739 32.752 36.4739 32.5101 36.7261ZM35.4839 38.8949V39.702H34.6774H33.871V38.8949V38.0879H34.6774H35.4839V38.8949Z" fill="#0073E6"/>
<path d="M38.7097 37.2809V38.088H42.7419H46.7742V37.2809V36.4739H42.7419H38.7097V37.2809Z" fill="#0073E6"/>
<path d="M38.7097 40.509V41.316H42.7419H46.7742V40.509V39.702H42.7419H38.7097V40.509Z" fill="#0073E6"/>
<path d="M32.5101 43.1822C32.2581 43.4243 32.2581 43.4445 32.2581 45.351C32.2581 47.9435 32.0867 47.772 34.6774 47.772C37.2682 47.772 37.0968 47.9435 37.0968 45.351C37.0968 42.7585 37.2682 42.93 34.6774 42.93C32.7722 42.93 32.752 42.93 32.5101 43.1822ZM35.4839 45.351V46.158H34.6774H33.871V45.351V44.544H34.6774H35.4839V45.351Z" fill="#0073E6"/>
<path d="M38.7097 43.7369V44.5439H42.7419H46.7742V43.7369V42.9299H42.7419H38.7097V43.7369Z" fill="#0073E6"/>
<path d="M38.7097 46.965V47.772H42.7419H46.7742V46.965V46.158H42.7419H38.7097V46.965Z" fill="#0073E6"/>
</svg>
