<svg width="50" height="50" viewBox="0 0 50 50" fill="none" xmlns="http://www.w3.org/2000/svg">
<path d="M22.9335 0.0318336C19.9295 0.324341 17.5908 0.848835 15.9577 1.59523L15.3226 1.87765V2.68456V3.50156L13.7097 4.30848L12.0968 5.11539V8.04046V10.9655L13.7097 11.7724L15.3226 12.5793V13.6889V14.7984L13.7097 15.6053L12.0968 16.4122V19.3373V22.2623L13.7097 23.0692L15.3226 23.8762V24.9857V26.0952L13.7097 26.9021L12.0968 27.709V30.6341V33.5591L13.7097 34.366L15.3226 35.173V35.99V36.7969L15.9879 37.0995C16.8246 37.4827 18.7097 38.0173 19.9899 38.2493L20.9678 38.4208V41.7796V45.1383L19.2843 45.1787C17.6311 45.2089 17.5807 45.219 16.9153 45.5317C15.9879 45.9654 15.3932 46.5504 14.9597 47.438C14.6472 48.0735 14.5867 48.2954 14.5363 49.0821L14.4859 50H25H35.5141L35.4637 49.0821C35.4133 48.2954 35.3528 48.0735 35.0403 47.438C34.6069 46.5504 34.0121 45.9654 33.0847 45.5317C32.4194 45.219 32.369 45.2089 30.7258 45.1787L29.0323 45.1383V41.7796V38.4208L30.0202 38.2493C31.2903 38.0173 33.1754 37.4827 34.0121 37.0995L34.6774 36.7969V35.99V35.173L36.2903 34.366L37.9033 33.5591V30.6341V27.709L36.2903 26.9021L34.6774 26.0952V24.9857V23.8762L36.2903 23.0692L37.9033 22.2623V19.3373V16.4122L36.2903 15.6053L34.6774 14.7984V13.6889V12.5793L36.2903 11.7724L37.9033 10.9655V8.04046V5.11539L36.2903 4.30848L34.6774 3.50156V2.69465V1.88774L34.3045 1.69609C33.1956 1.14134 30.8569 0.515984 28.8307 0.223476C27.7319 0.0620918 23.8609 -0.0589447 22.9335 0.0318336ZM27.369 1.69609C28.871 1.82722 30.9073 2.2105 32.1371 2.60387L33.0645 2.90647V19.3373V35.758L32.2883 36.0202C28.0847 37.4021 22.3186 37.4323 17.9234 36.0706L16.9355 35.768V19.3373V2.90647L17.9234 2.59379C20.6653 1.73644 24.1028 1.40359 27.369 1.69609ZM15.3226 8.04046V10.7638L14.5162 10.3603L13.7097 9.95688V8.04046V6.12403L14.496 5.73067C14.9194 5.50877 15.2823 5.32721 15.3024 5.31712C15.3125 5.31712 15.3226 6.54767 15.3226 8.04046ZM36.2903 8.04046V9.95688L35.4839 10.3603L34.6774 10.7638V8.04046V5.31712L35.4839 5.72058L36.2903 6.12403V8.04046ZM15.3226 19.3373V22.0606L14.5162 21.6571L13.7097 21.2537V19.3373V17.4208L14.496 17.0275C14.9194 16.8056 15.2823 16.624 15.3024 16.6139C15.3125 16.6139 15.3226 17.8445 15.3226 19.3373ZM36.2903 19.3373V21.2537L35.4839 21.6571L34.6774 22.0606V19.3373V16.6139L35.4839 17.0174L36.2903 17.4208V19.3373ZM15.3226 30.6341V33.3574L14.5162 32.9539L13.7097 32.5505V30.6341V28.7176L14.496 28.3243C14.9194 28.1024 15.2823 27.9208 15.3024 27.9107C15.3125 27.9107 15.3226 29.1413 15.3226 30.6341ZM36.2903 30.6341V32.5505L35.4839 32.9539L34.6774 33.3574V30.6341V27.9107L35.4839 28.3142L36.2903 28.7176V30.6341ZM27.4194 41.9006V45.1585H25H22.5807V41.9006V38.6528H25H27.4194V41.9006ZM32.1976 46.8934C32.6512 47.0245 33.6694 47.9525 33.6694 48.2248C33.6694 48.366 32.8024 48.3862 25 48.3862C17.1976 48.3862 16.3307 48.366 16.3307 48.2248C16.3307 47.9827 17.3488 47.0245 17.742 46.9035C18.2662 46.7421 31.6331 46.732 32.1976 46.8934Z" fill="#0073E6"/>
<path d="M23.8004 3.36035C21.25 4.04623 19.6674 6.69896 20.3125 9.20039C20.9879 11.7825 23.6291 13.3863 26.1593 12.7306C28.74 12.0549 30.3428 9.41221 29.6875 6.90069C29.0121 4.2883 26.3307 2.67447 23.8004 3.36035ZM26.5222 5.22634C27.1976 5.58945 27.5101 5.91222 27.9033 6.6687C28.125 7.10242 28.1654 7.31423 28.1654 8.04045C28.1754 8.82719 28.1452 8.94823 27.8327 9.53324C27.4496 10.2393 27.1271 10.5419 26.371 10.9453C25.9375 11.1672 25.7258 11.2076 25 11.2076C24.2742 11.2076 24.0625 11.1672 23.6291 10.9453C22.873 10.5419 22.5504 10.2393 22.1674 9.53324C21.8549 8.94823 21.8246 8.82719 21.8347 8.04045C21.8347 7.03181 22.0767 6.42662 22.7319 5.77101C23.74 4.76236 25.242 4.55055 26.5222 5.22634Z" fill="#0073E6"/>
<path d="M23.8004 14.6572C21.25 15.343 19.6674 17.9958 20.3125 20.4972C20.9879 23.0793 23.6291 24.6831 26.1593 24.0275C28.74 23.3517 30.3428 20.709 29.6875 18.1975C29.0121 15.5851 26.3307 13.9713 23.8004 14.6572ZM26.5222 16.5232C27.1976 16.8863 27.5101 17.209 27.9033 17.9655C28.125 18.3992 28.1654 18.611 28.1654 19.3373C28.1754 20.124 28.1452 20.245 27.8327 20.8301C27.4496 21.5361 27.1271 21.8387 26.371 22.2422C25.9375 22.4641 25.7258 22.5044 25 22.5044C24.2742 22.5044 24.0625 22.4641 23.6291 22.2422C22.873 21.8387 22.5504 21.5361 22.1674 20.8301C21.8549 20.245 21.8246 20.124 21.8347 19.3373C21.8347 18.3286 22.0767 17.7234 22.7319 17.0678C23.74 16.0592 25.242 15.8474 26.5222 16.5232Z" fill="#0073E6"/>
<path d="M23.8004 25.954C21.25 26.6399 19.6674 29.2926 20.3125 31.794C20.9879 34.3761 23.6291 35.9799 26.1593 35.3243C28.74 34.6485 30.3428 32.0058 29.6875 29.4943C29.0121 26.8819 26.3307 25.2681 23.8004 25.954ZM26.5222 27.82C27.1976 28.1831 27.5101 28.5058 27.9033 29.2623C28.125 29.696 28.1654 29.9079 28.1654 30.6341C28.1754 31.4208 28.1452 31.5419 27.8327 32.1269C27.4496 32.8329 27.1271 33.1355 26.371 33.539C25.9375 33.7609 25.7258 33.8012 25 33.8012C24.2742 33.8012 24.0625 33.7609 23.6291 33.539C22.873 33.1355 22.5504 32.8329 22.1674 32.1269C21.8549 31.5419 21.8246 31.4208 21.8347 30.6341C21.8347 29.6254 22.0767 29.0203 22.7319 28.3646C23.74 27.356 25.242 27.1442 26.5222 27.82Z" fill="#0073E6"/>
<path d="M1.97579 9.58365C1.84474 9.88624 1.70361 10.2191 1.67337 10.33C1.62297 10.4914 2.1774 10.7537 6.33063 12.4684C8.92136 13.5476 11.0988 14.4251 11.1794 14.4352C11.2601 14.4453 11.4415 14.1629 11.6028 13.7493C11.7641 13.3661 11.8851 13.0433 11.875 13.0231C11.8447 13.003 2.74192 9.23063 2.37902 9.08942C2.26813 9.04907 2.15724 9.18019 1.97579 9.58365Z" fill="#0073E6"/>
<path d="M42.9436 11.016C40.3629 12.0952 38.2258 12.9929 38.1956 13.003C38.125 13.0333 38.5988 14.3243 38.7198 14.4454C38.7702 14.4857 48.246 10.6226 48.3771 10.5117C48.4476 10.4411 47.8327 9.04913 47.7319 9.05921C47.6815 9.05921 45.5242 9.94682 42.9436 11.016Z" fill="#0073E6"/>
<path d="M0 19.3373V20.1442H5.24194H10.4839V19.3373V18.5303H5.24194H0V19.3373Z" fill="#0073E6"/>
<path d="M39.5161 19.3373V20.1442H44.758H50V19.3373V18.5303H44.758H39.5161V19.3373Z" fill="#0073E6"/>
<path d="M6.40126 26.1658C3.79038 27.2551 1.65328 28.1528 1.6432 28.1629C1.60288 28.1932 2.12707 29.4641 2.20772 29.5548C2.2682 29.6153 11.7238 25.7926 11.8751 25.6514C11.9255 25.5909 11.3206 24.2393 11.2299 24.2191C11.1795 24.209 9.01215 25.0865 6.40126 26.1658Z" fill="#0073E6"/>
<path d="M38.4274 24.905L38.125 25.6312L38.4375 25.7724C39.8891 26.3877 47.5605 29.5548 47.6815 29.5951C47.7923 29.6254 47.9133 29.4237 48.125 28.9194C48.2863 28.526 48.3972 28.1931 48.377 28.173C48.3266 28.1225 38.8306 24.1787 38.7702 24.1787C38.75 24.1787 38.5887 24.5116 38.4274 24.905Z" fill="#0073E6"/>
</svg>
