<svg width="50" height="36" viewBox="0 0 50 36" fill="none" xmlns="http://www.w3.org/2000/svg">
<path d="M1.66016 0.211173C1.02539 0.502793 0.419922 1.15642 0.195312 1.78994C0 2.31285 0 2.59441 0 18C0 33.4056 0 33.6872 0.195312 34.2101C0.419922 34.8436 1.02539 35.4972 1.66016 35.7888C2.08008 35.9899 2.29492 36 6.26953 36H10.4395L10.6348 35.7385C10.8887 35.4067 10.8984 35.0849 10.6543 34.7832L10.4688 34.5419L6.31836 34.4916C2.34375 34.4413 2.1582 34.4313 1.95312 34.2402C1.43555 33.7575 1.46484 34.4816 1.46484 20.4134V7.34078H25H48.5352V20.4134C48.5352 34.4816 48.5645 33.7575 48.0469 34.2402C47.832 34.4413 47.6562 34.4413 30.498 34.4916L13.1641 34.5419L12.9785 34.7832C12.7246 35.105 12.7441 35.5173 13.0176 35.7788L13.2422 36H30.5762C47.7734 36 47.9004 35.9899 48.3398 35.7888C48.9746 35.4972 49.5801 34.8436 49.8047 34.2101C50 33.6872 50 33.4056 50 18C50 2.59441 50 2.31285 49.8047 1.78994C49.5801 1.15642 48.9746 0.502793 48.3398 0.211173C47.9004 0.0100553 47.7832 -6.10948e-07 29.375 -6.10948e-07H10.8496L10.6543 0.261452C10.4004 0.593295 10.3906 0.915083 10.6348 1.21676L10.8203 1.4581L29.3262 1.50838C47.6562 1.55866 47.832 1.55866 48.0469 1.75978C48.4863 2.17207 48.5352 2.41341 48.5352 4.17318V5.8324H25H1.46484V4.17318C1.46484 2.41341 1.51367 2.17207 1.95312 1.75978C2.1582 1.56871 2.34375 1.55866 5.14648 1.50838L8.125 1.4581L8.31055 1.21676C8.55469 0.915083 8.54492 0.593295 8.29102 0.261452L8.0957 -6.10948e-07H5.09766C2.29492 -6.10948e-07 2.07031 0.0201111 1.66016 0.211173Z" fill="#0073E6"/>
<path d="M3.9551 9.39215C3.55471 9.57316 3.15432 10.076 3.02736 10.5586C2.959 10.8201 2.92971 13.2134 2.94924 17.7184C2.97854 25.2804 2.93947 24.8279 3.68166 25.4111L4.03322 25.6927L9.49221 25.7229C14.7754 25.743 14.9512 25.743 15.3223 25.5419C15.8106 25.2905 16.084 24.8983 16.211 24.2648C16.2793 23.943 16.3086 21.5195 16.2891 17.1352C16.2598 9.73405 16.2988 10.1665 15.5567 9.58322L15.2051 9.30165L9.72658 9.28154C5.32229 9.26143 4.18947 9.28154 3.9551 9.39215ZM14.7852 10.9206C14.8633 11.1318 14.8633 20.6145 14.7852 20.6145C14.7461 20.6145 14.4238 20.3329 14.0723 19.981C13.711 19.6391 13.1348 19.1966 12.7832 19.0056L12.1387 18.6637L12.5488 18.0402C13.0469 17.2961 13.2227 16.6022 13.1641 15.6871C13.0664 14.3698 12.3242 13.2436 11.1426 12.6402C10.5664 12.3486 10.4199 12.3184 9.61916 12.3184C8.87697 12.3184 8.65236 12.3586 8.18361 12.5899C7.44143 12.9419 6.7383 13.6357 6.3965 14.3497C6.17189 14.8123 6.1133 15.1039 6.07424 15.7877C6.02541 16.7832 6.23049 17.4771 6.78713 18.2313L7.11916 18.6737L6.61135 18.9151C6.06447 19.1765 4.70705 20.2324 4.61916 20.4737C4.58986 20.5441 4.53127 20.6145 4.48244 20.6145C4.38478 20.6145 4.35549 10.9307 4.46291 10.8301C4.49221 10.7899 6.81643 10.7598 9.62893 10.7598C14.1895 10.7598 14.7363 10.7799 14.7852 10.9206ZM10.2637 13.8871C11.4258 14.2491 12.0508 15.6871 11.5332 16.8436C10.5957 18.9653 7.50978 18.3117 7.51955 15.9787C7.52932 14.4704 8.85744 13.4547 10.2637 13.8871ZM10.8399 19.8201C12.666 20.2525 14.336 22.0324 14.6778 23.9028L14.7461 24.2346H9.61916C6.79689 24.2346 4.49221 24.1944 4.49221 24.1542C4.49221 23.9128 4.84377 22.9072 5.09768 22.3944C5.44924 21.7206 6.47463 20.6849 7.18752 20.2927C7.46096 20.1419 7.91994 19.9508 8.21291 19.8704C8.82814 19.6994 10.2149 19.6692 10.8399 19.8201Z" fill="#0073E6"/>
<path d="M19.5312 9.44245C19.3457 9.54301 19.0918 9.80446 18.9746 10.0156C18.7793 10.3575 18.75 10.5486 18.75 11.6246C18.75 12.962 18.8477 13.2436 19.4629 13.7162L19.7363 13.9274H32.9102C46.0547 13.9274 46.084 13.9274 46.3574 13.7162C46.5039 13.6056 46.7285 13.314 46.8555 13.0626C47.0605 12.6603 47.0801 12.5095 47.0508 11.4436C47.0215 10.1464 46.9336 9.92513 46.2891 9.47262C45.9766 9.26145 45.8984 9.25139 43.4961 9.25139H41.0254L40.8301 9.51284C40.5957 9.81452 40.5762 9.94525 40.7324 10.2871C40.918 10.7095 41.1816 10.7598 43.457 10.7598H45.6055V11.6145V12.4693H32.9102H20.2148V11.6145V10.7598L29.2578 10.7397L38.3008 10.7095L38.4863 10.4682C38.7305 10.1665 38.7207 9.74413 38.4766 9.47262L38.2715 9.25139H29.0723C20.3027 9.25139 19.8535 9.26145 19.5312 9.44245Z" fill="#0073E6"/>
<path d="M19.1699 15.5866C18.7207 15.7776 18.6133 16.4212 18.9746 16.7732C19.1895 16.9843 19.2871 16.9944 21.0742 16.9944C22.8223 16.9944 22.959 16.9843 23.1445 16.7933C23.3887 16.5419 23.3984 16.0793 23.1543 15.7776C22.9688 15.5463 22.9297 15.5363 21.1719 15.5162C20.1953 15.5061 19.2871 15.5363 19.1699 15.5866Z" fill="#0073E6"/>
<path d="M25.3906 15.5564C24.8828 15.7475 24.7266 16.4111 25.0976 16.7933C25.293 16.9944 25.4199 16.9944 33.4961 16.9944C41.5723 16.9944 41.6992 16.9944 41.8945 16.7933C42.1387 16.5419 42.1484 16.0793 41.9043 15.7776L41.7187 15.5363L33.623 15.5162C29.1797 15.5061 25.4687 15.5262 25.3906 15.5564Z" fill="#0073E6"/>
<path d="M25.0977 19.0056C24.834 19.2771 24.8438 19.8201 25.1074 20.0715C25.293 20.2425 25.5078 20.2626 27.0215 20.2928C28.877 20.333 29.1992 20.2726 29.3848 19.8503C29.541 19.4983 29.5215 19.3676 29.2871 19.0659L29.0918 18.8045H27.1875C25.4199 18.8045 25.2832 18.8145 25.0977 19.0056Z" fill="#0073E6"/>
<path d="M31.1621 19.0659C30.9278 19.3676 30.9082 19.4983 31.0645 19.8503C31.25 20.2726 31.5723 20.333 33.4278 20.2928C35.3906 20.2626 35.5469 20.2023 35.5469 19.4983C35.5469 18.8447 35.4004 18.8045 33.2422 18.8045H31.3574L31.1621 19.0659Z" fill="#0073E6"/>
<path d="M18.9941 22.2737C18.8574 22.4044 18.75 22.6357 18.75 22.7765C18.75 22.9173 18.8574 23.1486 18.9941 23.2793C19.2285 23.5307 19.248 23.5307 21.0254 23.5307C22.6953 23.5307 22.8418 23.5206 23.0859 23.3195C23.4375 23.038 23.4375 22.5151 23.0859 22.2335C22.8418 22.0324 22.6953 22.0223 21.0254 22.0223C19.248 22.0223 19.2285 22.0223 18.9941 22.2737Z" fill="#0073E6"/>
<path d="M25.1172 22.2234C24.8047 22.5251 24.8242 23.048 25.1563 23.3195C25.4199 23.5307 25.4688 23.5307 33.4961 23.5307C41.5234 23.5307 41.5723 23.5307 41.8359 23.3195C42.1875 23.038 42.1875 22.5151 41.8359 22.2335C41.5723 22.0223 41.5234 22.0223 33.457 22.0223C25.4102 22.0223 25.332 22.0223 25.1172 22.2234Z" fill="#0073E6"/>
<path d="M25.1563 25.4514C24.834 25.7128 24.8047 26.2458 25.0977 26.5475C25.2832 26.7385 25.4199 26.7486 27.1875 26.7486H29.0918L29.2871 26.4871C29.5215 26.1855 29.541 26.0547 29.3848 25.7128C29.1992 25.3006 28.916 25.2402 27.1094 25.2402C25.5469 25.2402 25.4004 25.2603 25.1563 25.4514Z" fill="#0073E6"/>
<path d="M30.9668 28.5184C30.7715 28.7698 30.7617 28.9206 30.7617 30.6402C30.7617 32.4704 30.7617 32.4905 31.0059 32.7318C31.1328 32.8726 31.3574 32.9832 31.4941 32.9832C31.6309 32.9832 31.8555 32.8726 31.9824 32.7318C32.2266 32.4905 32.2266 32.4704 32.2266 30.5698C32.2266 28.7899 32.2168 28.6491 32.0312 28.4581C31.7383 28.1564 31.2207 28.1866 30.9668 28.5184Z" fill="#0073E6"/>
<path d="M33.9258 28.4681C33.7598 28.6592 33.7402 28.8402 33.7402 30.0871V31.495L34.0137 31.7363C34.3457 32.0279 34.5605 32.038 34.9023 31.7665L35.1562 31.5654V30.067C35.1562 28.6391 35.1465 28.5586 34.9414 28.4179C34.6289 28.1866 34.1504 28.2168 33.9258 28.4681Z" fill="#0073E6"/>
<path d="M36.9141 28.4581C36.7383 28.6391 36.7188 28.79 36.7188 30.0671C36.7188 31.4347 36.7285 31.495 36.9629 31.7263C37.2266 32.0078 37.373 32.028 37.7246 31.8671C38.1055 31.6861 38.1836 31.3643 38.1836 30.0268C38.1836 28.9207 38.1641 28.7598 37.9785 28.5185C37.7246 28.1866 37.207 28.1564 36.9141 28.4581Z" fill="#0073E6"/>
<path d="M39.8535 28.5184C39.6582 28.7698 39.6484 28.9206 39.6484 30.6402C39.6484 32.4704 39.6484 32.4905 39.8926 32.7318C40.0195 32.8726 40.2441 32.9832 40.3809 32.9832C40.5176 32.9832 40.7422 32.8726 40.8691 32.7318C41.1133 32.4905 41.1133 32.4704 41.1133 30.5899C41.1133 28.8201 41.1035 28.6793 40.918 28.4782C40.625 28.1564 40.1172 28.1765 39.8535 28.5184Z" fill="#0073E6"/>
<path d="M42.8125 28.4681C42.6465 28.6592 42.627 28.8402 42.627 30.0871V31.495L42.9004 31.7363C43.2324 32.0279 43.4473 32.038 43.7891 31.7665C44.043 31.5654 44.043 31.5553 44.043 30.1073C44.043 28.7899 44.0234 28.6391 43.8477 28.4581C43.584 28.1866 43.0566 28.1966 42.8125 28.4681Z" fill="#0073E6"/>
<path d="M45.8008 28.4581C45.6152 28.6492 45.6055 28.79 45.6055 30.6101V32.571L45.8594 32.7721C46.1914 33.0335 46.5234 33.0436 46.7773 32.7821C47.0605 32.4905 47.0898 32.2693 47.0508 30.3989C47.0215 28.8805 47.002 28.6592 46.8359 28.4682C46.5918 28.1967 46.0645 28.1866 45.8008 28.4581Z" fill="#0073E6"/>
</svg>
