<svg width="40" height="51" viewBox="0 0 40 51" fill="none" xmlns="http://www.w3.org/2000/svg">
<path d="M11.5991 3.74609C4.35017 6.7159 2.42469 7.54628 2.17929 7.78074L1.87725 8.08358V11.0632V14.0427L1.58465 14.16C1.15991 14.3456 0.48033 15.0783 0.244364 15.6058C0.0461527 16.0356 0.0367141 16.231 0.00839814 18.644C-0.0104791 20.4904 0.00839814 21.3012 0.0933459 21.5063C0.300996 22.0241 0.527524 22.0729 2.82111 22.0729C5.1147 22.0729 5.34123 22.0241 5.54888 21.5063C5.63383 21.3012 5.65271 20.4904 5.63383 18.644L5.60551 16.0649L5.33179 15.4983C5.06751 14.9415 4.38793 14.2577 3.95375 14.1111C3.77442 14.0525 3.76498 13.9646 3.76498 11.9424C3.76498 10.7896 3.80273 9.86156 3.84993 9.8811C3.88768 9.89086 5.41674 10.5259 7.24784 11.2683L10.5608 12.636V15.2736V17.9211L10.0417 18.3509C9.24883 19.0054 7.55931 20.8616 6.96468 21.731C5.41674 23.9877 4.41624 26.4691 3.94431 29.2532C3.68947 30.7577 3.67059 33.366 3.89712 34.8216C4.11421 36.1991 4.48232 37.5863 4.94481 38.7781C5.26572 39.6085 5.39786 39.843 5.66215 40.0286C6.06801 40.3217 6.45499 40.263 6.80422 39.8527C7.12514 39.4913 7.14401 39.1591 6.87029 38.5144C4.36905 32.5845 5.69046 25.414 10.1266 20.9104L10.6363 20.3829L10.8817 20.588C11.0139 20.6955 11.533 20.9495 12.0238 21.1449L12.9205 21.5063L12.0238 22.3856C10.0134 24.3589 8.73914 26.7524 8.13507 29.6929C7.88023 30.9433 7.90854 33.5028 8.1917 34.8705C9.28658 40.1556 13.1942 44.2195 18.3005 45.3723C19.3765 45.6165 21.7362 45.6751 22.8782 45.4895C27.4277 44.7373 31.2692 41.6209 32.9776 37.303C34.1857 34.2355 34.2801 31.0508 33.2607 27.866C32.6 25.8243 31.675 24.2905 30.0894 22.6396L28.9945 21.4868L29.8723 21.1351C30.3631 20.9397 30.8728 20.6955 31.0049 20.588L31.2503 20.3829L31.76 20.9104C33.7987 22.9815 35.3184 25.8536 35.9413 28.8429C36.5548 31.7639 36.3472 34.851 35.3372 37.6547C32.8549 44.6005 26.0119 48.8892 18.9612 47.922C16.46 47.5703 14.3457 46.7204 12.1465 45.1671C11.5519 44.7471 11.0139 44.4442 10.8817 44.4442C10.3343 44.4442 9.9001 44.9034 9.9001 45.4895C9.9001 46.0366 11.382 47.1698 13.4396 48.2053C21.3775 52.2107 30.9483 49.319 35.6204 41.5037C37.0362 39.1396 37.8951 36.3847 38.1311 33.4735C38.4614 29.2532 37.1778 24.779 34.6293 21.3305C33.9875 20.461 32.449 18.8198 31.7789 18.2825L31.3258 17.9308V15.2834V12.6458L35.1296 11.0925C37.2155 10.2328 39.1033 9.45125 39.3298 9.34379C40.0188 9.02141 40.2076 8.3278 39.7545 7.81981C39.5469 7.58535 38.7068 7.20436 35.7809 6.00275C33.4873 5.07469 31.9393 4.48854 31.7317 4.48854C31.2786 4.48854 30.8539 4.92815 30.8539 5.40684C30.8539 6.0516 31.137 6.22744 33.7327 7.27274C35.0352 7.80027 36.1773 8.26919 36.2717 8.3278C36.4227 8.40596 35.7997 8.68926 32.9681 9.86156C25.0302 13.144 21.0755 14.7461 20.9527 14.7461C20.7168 14.7461 5.47337 8.44503 5.53944 8.37665C5.5772 8.34734 9.06006 6.90152 13.2791 5.17238L20.9527 2.02673L22.7933 2.77895C24.8132 3.60932 25.0963 3.6484 25.4739 3.15017C25.7381 2.80825 25.7287 2.23188 25.455 1.9095C25.219 1.64573 21.2831 -0.00524902 20.915 0.00452042C20.8017 0.00452042 16.611 1.68481 11.5991 3.74609ZM16.6393 15.1369C18.8574 16.0454 20.7923 16.7976 20.9433 16.7976C21.0943 16.7976 23.0293 16.0454 25.2473 15.1369C27.4749 14.2186 29.3248 13.4761 29.3626 13.4761C29.4098 13.4761 29.4381 14.7657 29.4381 16.3482V19.2301L28.2394 19.7088C27.5692 19.9824 25.6909 20.7541 24.0486 21.4282C22.4157 22.1023 21.0188 22.6591 20.9527 22.6591C20.8867 22.6591 19.0178 21.9166 16.8092 21.0081C14.5911 20.0898 12.7034 19.3181 12.6184 19.279C12.458 19.2204 12.4485 18.9957 12.4485 16.3482C12.4485 14.7657 12.4863 13.4761 12.524 13.4761C12.5712 13.4761 14.4212 14.2186 16.6393 15.1369ZM3.44406 16.1529L3.76498 16.485V18.3021V20.1191H2.82111H1.87725V18.3021V16.485L2.19816 16.1529C2.43413 15.9086 2.60403 15.8207 2.82111 15.8207C3.0382 15.8207 3.21754 15.9086 3.44406 16.1529ZM18.3099 23.7239C19.6313 24.2612 20.8206 24.7106 20.9433 24.7106C21.1321 24.7106 22.4063 24.2124 26.4272 22.5614L26.8708 22.3758L27.4371 22.8056C28.8057 23.8412 29.9383 25.1795 30.7123 26.6937C31.1087 27.4655 31.5523 28.5206 31.4768 28.5206C31.458 28.5206 29.8534 28.1298 27.9185 27.6511C23.303 26.5081 23.3502 26.5179 20.9433 26.5179C18.5365 26.5179 18.5837 26.5081 13.987 27.6511C12.0615 28.1298 10.457 28.5206 10.4287 28.5206C10.4003 28.5206 10.457 28.3056 10.5608 28.0321C11.3253 26.0294 12.6184 24.2515 14.223 23.001L15.0253 22.3758L15.4595 22.5614C15.6954 22.6591 16.9791 23.1769 18.3099 23.7239ZM23.1614 28.5694C24.1053 28.7062 31.8544 30.6014 31.9676 30.7186C32.0054 30.7577 32.0337 31.3438 32.0337 32.0179V33.2586L28.6358 33.3172C26.6348 33.3465 25.1246 33.4149 24.9547 33.4735C23.7372 33.9131 22.7838 34.8119 22.3308 35.9451C22.1326 36.4629 22.1231 36.6387 22.0759 40.0481L22.0288 43.6138H20.9433H19.8579L19.8107 39.9993L19.7635 36.3847L19.4614 35.7399C18.9612 34.6946 18.0551 33.874 16.9319 33.4735C16.762 33.4149 15.2424 33.3465 13.2508 33.3172L9.8529 33.2586V32.0179C9.8529 31.3438 9.88122 30.7479 9.91897 30.7186C9.95673 30.6795 10.6552 30.4842 11.4764 30.279C12.2975 30.0836 14.072 29.6342 15.4217 29.3021C16.7714 28.9602 18.2344 28.6378 18.678 28.5694C19.7824 28.3936 22.0288 28.3936 23.1614 28.5694ZM16.4222 35.3785C16.913 35.525 17.5265 36.0916 17.7436 36.5703C17.9041 36.9318 17.9229 37.2737 17.9229 40.1165V43.2622L17.2622 43.0277C14.7516 42.1485 12.3541 40.009 11.0988 37.5375C10.7213 36.7852 10.2776 35.6423 10.2776 35.4078C10.2776 35.2808 10.6835 35.2613 13.1659 35.2613C15.0914 35.2613 16.1862 35.3003 16.4222 35.3785ZM31.458 35.9646C30.6934 38.1822 29.1266 40.3021 27.3144 41.6112C26.5499 42.1485 25.1058 42.9007 24.4167 43.1156L23.9637 43.2524V40.1165C23.9637 36.5605 23.9826 36.4629 24.6999 35.8376C25.3323 35.2906 25.4361 35.2808 28.7019 35.271L31.7034 35.2613L31.458 35.9646Z" fill="#0073E6"/>
<path d="M19.8578 29.6343C19.0366 30.025 18.4986 30.8163 18.4231 31.7542C18.3193 32.8483 18.8101 33.8057 19.7257 34.3332C20.1598 34.5872 20.3297 34.6263 20.9433 34.6263C21.5568 34.6263 21.7267 34.5872 22.1608 34.3332C23.6616 33.4735 23.9447 31.3243 22.7177 30.113C21.9815 29.3803 20.7922 29.1849 19.8578 29.6343ZM21.4529 31.5685C21.6606 31.8714 21.6417 32.2328 21.3963 32.4966C21.1415 32.7799 20.7828 32.7799 20.4996 32.5064C20.0466 32.0668 20.3486 31.3536 20.981 31.3536C21.217 31.3536 21.3491 31.422 21.4529 31.5685Z" fill="#0073E6"/>
<path d="M28.0601 3.11108C27.9468 3.15993 27.7675 3.326 27.6448 3.48231C27.4843 3.69723 27.4466 3.834 27.4843 4.14661C27.6353 5.27006 29.1644 5.27006 29.3154 4.13684C29.3532 3.79492 29.3249 3.68746 29.0983 3.42369C28.8057 3.10131 28.381 2.97431 28.0601 3.11108Z" fill="#0073E6"/>
<path d="M7.75757 41.7577C7.38947 41.914 7.25732 42.168 7.25732 42.6565C7.25732 43.7115 8.72975 43.946 9.05067 42.9398C9.20168 42.4611 8.9846 41.9433 8.54098 41.7577C8.14456 41.5819 8.13512 41.5819 7.75757 41.7577Z" fill="#0073E6"/>
</svg>
