<svg width="200" height="66" viewBox="0 0 200 66" fill="none" xmlns="http://www.w3.org/2000/svg">
<path d="M14.7754 6.48907C14.7754 6.48907 15.2679 7.25864 15.0351 7.67193C14.6836 8.29424 14.4935 10.2768 13.6131 10.8167C12.3479 11.1477 10.869 9.01314 10.869 9.01314L12.7422 7.34257L14.7754 6.48907Z" fill="#0073E6"/>
<path d="M30.854 6.48907C30.854 6.48907 30.3616 7.25864 30.5944 7.67193C30.9459 8.29424 31.1359 10.2768 32.0163 10.8167C33.2815 11.1477 34.7605 9.01314 34.7605 9.01314L32.8872 7.34257L30.854 6.48907Z" fill="#0073E6"/>
<path d="M23 2.0918C11.4517 2.0918 2.0918 11.4533 2.0918 23C2.0918 34.5467 11.4533 43.9083 23 43.9083C34.5483 43.9083 43.9083 34.5467 43.9083 23C43.9083 11.4517 34.5483 2.0918 23 2.0918ZM20.1989 38.3233C19.5449 39.5125 17.6669 39.6297 16.3146 38.906C12.0044 36.5989 8.61572 33.8437 7.28877 29.7662C6.9024 28.577 7.0655 27.1725 7.99975 26.5628C8.47638 26.2525 8.96092 26.0118 9.4518 25.836C15.3597 23.7063 21.9343 30.862 20.8433 36.5292C20.723 37.1484 20.5124 37.7517 20.1989 38.3233ZM25.1567 36.5277C24.0673 30.8604 30.6419 23.7063 36.5482 25.8344C37.0391 26.0102 37.5237 26.2493 38.0003 26.5613C38.9361 27.1709 39.0992 28.577 38.7113 29.7646C37.3843 33.8421 33.9957 36.5973 29.6855 38.9045C28.3332 39.6281 26.4552 39.5109 25.8012 38.3217C25.4877 37.7517 25.2771 37.1484 25.1567 36.5277ZM23 14.853C20.8607 14.8404 19.1775 15.5973 17.9234 16.2592C14.4097 18.1134 12.6488 20.9241 8.7804 21.2107C8.5698 21.2265 8.35286 21.2344 8.12801 21.2344C3.0878 21.2344 7.84615 12.7708 10.7075 9.90784C13.8729 6.74247 18.4364 5.16058 23.0016 5.16058C27.5652 5.16058 32.1304 6.74405 35.2957 9.90784C38.1571 12.7708 42.917 21.2344 37.8752 21.2344C37.6503 21.2344 37.4334 21.2265 37.2228 21.2107C33.3544 20.9257 31.5936 18.1134 28.0798 16.2592C26.8225 15.5973 25.1393 14.8404 23 14.853Z" fill="white"/>
<path d="M23 46C16.8561 46 11.0796 43.6074 6.73611 39.2639C2.39263 34.9204 0 29.1439 0 23C0 16.8561 2.39263 11.0796 6.73611 6.73611C11.0796 2.39263 16.8561 0 23 0C29.1439 0 34.9204 2.39263 39.2639 6.73611C43.609 11.0796 46.0016 16.8561 46.0016 23C46.0016 29.1439 43.6089 34.9204 39.2655 39.2639C34.9204 43.6074 29.1439 46 23 46ZM23 4.18355C12.6251 4.18355 4.18513 12.6235 4.18513 22.9984C4.18513 33.3734 12.6251 41.8133 23 41.8133C33.3749 41.8133 41.8149 33.3734 41.8149 22.9984C41.8165 12.6251 33.3749 4.18355 23 4.18355Z" fill="white"/>
<path d="M23 44.7443C11.0099 44.7443 1.25409 34.9901 1.25409 22.9984C1.25409 11.0083 11.0083 1.25253 23 1.25253C34.9901 1.25253 44.7459 11.0068 44.7459 22.9984C44.7459 34.9901 34.9901 44.7443 23 44.7443ZM23 2.92785C11.9331 2.92785 2.92941 11.9315 2.92941 22.9984C2.92941 34.0653 11.9331 43.069 23 43.069C34.0669 43.069 43.0705 34.0653 43.0705 22.9984C43.0705 11.9315 34.0669 2.92785 23 2.92785Z" fill="white"/>
<path d="M23 37.2624C22.3333 37.2845 21.5796 37.1119 20.8433 36.5276C21.9327 30.8604 15.3581 23.7062 9.45173 25.8344C8.20078 24.015 7.91892 22.9477 8.78033 21.2107C12.6488 20.9256 14.4096 18.1134 17.9233 16.2591C19.1774 15.5972 20.8607 14.8403 23 14.853C25.1392 14.8403 26.8225 15.5972 28.0766 16.2591C31.5903 18.1134 33.3511 20.924 37.2196 21.2107C38.081 22.9477 37.7975 24.015 36.5482 25.8344C30.6402 23.7046 24.0656 30.8604 25.1567 36.5276C24.4203 37.1119 23.6666 37.2845 23 37.2624Z" fill="white"/>
<path d="M26.2583 20.8631C26.6793 19.063 25.5612 17.2624 23.7611 16.8415C21.961 16.4205 20.1604 17.5385 19.7395 19.3387C19.3185 21.1388 20.4365 22.9394 22.2367 23.3603C24.0368 23.7813 25.8374 22.6633 26.2583 20.8631Z" fill="white"/>
<path d="M23 26.4837C22.9968 26.4837 22.9921 26.4837 22.9889 26.4837C21.6176 26.4837 20.5045 26.1242 20.5045 25.6824C20.5045 25.2406 21.6161 24.8812 22.9889 24.8812C22.9921 24.8812 22.9968 24.8812 23 24.8812C23.0032 24.8812 23.0079 24.8812 23.0111 24.8812C24.3824 24.8812 25.4956 25.2406 25.4956 25.6824C25.4956 26.1242 24.384 26.4837 23.0111 26.4837C23.0079 26.4837 23.0032 26.4837 23 26.4837Z" fill="white"/>
<path d="M44.7966 14.7849C44.795 15.0494 44.681 15.3107 44.4656 15.4643C41.5441 17.5449 42.6098 16.8371 39.4982 18.5045C39.2813 18.6217 39.0137 18.6075 38.7888 18.5061C38.6242 18.4301 38.45 18.3272 38.3518 18.1957C38.2045 17.9931 38.1491 17.5038 38.1285 17.214C38.1269 17.1871 38.1206 17.1633 38.1127 17.138C38.1016 17.1063 38.0858 17.0746 38.0636 17.0493C38.0414 17.0224 38.0145 16.9986 37.9828 16.9812C37.9559 16.9654 37.9274 16.9543 37.8958 16.9496C37.5838 16.8862 37.0248 16.7358 36.7715 16.4286C36.5166 16.1182 36.4564 15.4278 36.4437 15.0462C36.4421 15.005 36.4326 14.9639 36.4136 14.9306C36.3994 14.899 36.3788 14.8704 36.3535 14.8467C36.3265 14.8214 36.2964 14.8024 36.2616 14.7881C36.2347 14.777 36.2078 14.7691 36.1761 14.7675C35.7406 14.7327 34.8856 14.6076 34.5261 14.161C34.1698 13.7193 34.2189 12.8388 34.2743 12.3828C34.2791 12.3464 34.2759 12.31 34.2664 12.2767C34.2585 12.2435 34.2443 12.2118 34.2253 12.1849C34.2078 12.1564 34.1841 12.131 34.1556 12.112C34.1208 12.0851 34.0764 12.0677 34.0305 12.0582C32.9252 11.8634 32.6418 11.2364 32.6418 10.6679C32.6418 7.81447 39.6439 4.6396 41.05 5.69578C41.4301 5.98081 41.5726 6.78996 41.6185 7.15891C41.6328 7.27134 41.7088 7.36477 41.8149 7.3996C42.1981 7.5247 43.0816 7.86673 43.3429 8.41936C43.5773 8.91499 43.354 9.74473 43.1972 10.2039C43.1402 10.3702 43.2432 10.5476 43.4158 10.584C43.734 10.6473 44.2883 10.9878 44.4846 11.2649C44.9137 11.8698 44.3057 13.0764 44.2582 13.2284C44.2265 13.3297 44.2503 13.4406 44.3247 13.5166C44.4545 13.6512 44.6509 13.8792 44.7253 14.0835C44.7855 14.2466 44.7966 14.5379 44.7966 14.7849Z" fill="#0073E6"/>
<path d="M37.5379 9.65924L34.2696 12.2767C34.2617 12.2435 34.2474 12.2118 34.2284 12.1849C34.211 12.1564 34.1873 12.131 34.1588 12.112L37.5379 9.65924Z" fill="#0073E6"/>
<path d="M39.7484 12.1168L36.4152 14.9306C36.4009 14.899 36.3804 14.8705 36.355 14.8467C36.3281 14.8214 36.298 14.8024 36.2632 14.7881L39.7484 12.1168Z" fill="#0073E6"/>
<path d="M41.4522 14.6678L38.1142 17.1396C38.1031 17.1079 38.0873 17.0762 38.0651 17.0509C38.043 17.024 38.016 17.0002 37.9844 16.9828L41.4522 14.6678Z" fill="#0073E6"/>
<path d="M0.83289 14.7849C0.834474 15.0494 0.948484 15.3107 1.16384 15.4643C4.08535 17.5449 3.01967 16.8371 6.1312 18.5045C6.34814 18.6217 6.61575 18.6075 6.8406 18.5061C7.00528 18.4301 7.17947 18.3272 7.27764 18.1957C7.4249 17.9931 7.48033 17.5038 7.50091 17.214C7.50249 17.1871 7.50883 17.1633 7.51675 17.138C7.52783 17.1063 7.54366 17.0746 7.56583 17.0493C7.588 17.0224 7.61492 16.9986 7.64659 16.9812C7.67351 16.9654 7.70201 16.9543 7.73368 16.9496C8.04563 16.8862 8.60459 16.7358 8.85795 16.4286C9.11289 16.1182 9.17306 15.4278 9.18573 15.0462C9.18731 15.005 9.19682 14.9639 9.21423 14.9306C9.22848 14.899 9.24907 14.8704 9.27441 14.8467C9.30132 14.8214 9.33141 14.8024 9.36625 14.7881C9.39317 14.777 9.42008 14.7691 9.45175 14.7675C9.88721 14.7327 10.7423 14.6076 11.1017 14.161C11.458 13.7193 11.4089 12.8388 11.3535 12.3828C11.3488 12.3464 11.3519 12.31 11.3614 12.2767C11.3693 12.2435 11.3836 12.2118 11.4026 12.1849C11.42 12.1564 11.4438 12.131 11.4723 12.112C11.5071 12.0851 11.5514 12.0677 11.5974 12.0582C12.7026 11.8634 12.9861 11.2364 12.9861 10.6679C12.9861 7.81447 5.98394 4.6396 4.57781 5.69578C4.19778 5.98081 4.05527 6.78996 4.00934 7.15891C3.99509 7.27134 3.91909 7.36477 3.81299 7.3996C3.42979 7.5247 2.54621 7.86673 2.28494 8.41936C2.05058 8.91499 2.27385 9.74473 2.4322 10.2039C2.48921 10.3702 2.38628 10.5476 2.21368 10.584C1.8954 10.6473 1.34119 10.9878 1.14484 11.2649C0.715713 11.8698 1.32377 13.0764 1.37127 13.2284C1.40294 13.3297 1.37919 13.4406 1.30477 13.5166C1.17492 13.6512 0.97857 13.8792 0.904146 14.0835C0.843974 14.2466 0.831307 14.5379 0.83289 14.7849Z" fill="#0073E6"/>
<path d="M8.09155 9.65924L11.3598 12.2767C11.3678 12.2435 11.382 12.2118 11.401 12.1849C11.4184 12.1564 11.4422 12.131 11.4707 12.112L8.09155 9.65924Z" fill="#0073E6"/>
<path d="M5.87946 12.1168L9.21267 14.9306C9.22692 14.899 9.24751 14.8705 9.27285 14.8467C9.29977 14.8214 9.32985 14.8024 9.36469 14.7881L5.87946 12.1168Z" fill="#0073E6"/>
<path d="M59.264 40V5.92H71.984C75.728 5.92 78.848 6.688 81.344 8.224C83.872 9.728 85.776 11.776 87.056 14.368C88.336 16.928 88.976 19.776 88.976 22.912C88.976 26.368 88.272 29.376 86.864 31.936C85.456 34.496 83.472 36.48 80.912 37.888C78.384 39.296 75.408 40 71.984 40H59.264ZM80.96 22.912C80.96 20.928 80.608 19.184 79.904 17.68C79.2 16.144 78.176 14.96 76.832 14.128C75.488 13.264 73.872 12.832 71.984 12.832H67.136V33.088H71.984C73.904 33.088 75.52 32.656 76.832 31.792C78.176 30.896 79.2 29.68 79.904 28.144C80.608 26.576 80.96 24.832 80.96 22.912ZM93.6234 40V5.92H108.983C110.583 5.92 112.055 6.256 113.399 6.928C114.775 7.568 115.959 8.448 116.951 9.568C117.943 10.656 118.711 11.888 119.255 13.264C119.831 14.64 120.119 16.032 120.119 17.44C120.119 18.848 119.895 20.192 119.447 21.472C118.999 22.72 118.359 23.856 117.527 24.88C116.695 25.872 115.703 26.688 114.551 27.328L122.039 40H113.351L106.823 29.008H101.495V40H93.6234ZM101.495 22.144H108.695C109.335 22.144 109.895 21.952 110.375 21.568C110.887 21.152 111.303 20.592 111.623 19.888C111.943 19.184 112.103 18.368 112.103 17.44C112.103 16.512 111.911 15.712 111.527 15.04C111.175 14.336 110.727 13.792 110.183 13.408C109.639 13.024 109.063 12.832 108.455 12.832H101.495V22.144ZM125.78 40V5.92H133.652V40H125.78ZM140.17 40V5.92H152.89C156.634 5.92 159.754 6.688 162.25 8.224C164.778 9.728 166.682 11.776 167.962 14.368C169.242 16.928 169.882 19.776 169.882 22.912C169.882 26.368 169.178 29.376 167.77 31.936C166.362 34.496 164.378 36.48 161.818 37.888C159.29 39.296 156.314 40 152.89 40H140.17ZM161.866 22.912C161.866 20.928 161.514 19.184 160.81 17.68C160.106 16.144 159.082 14.96 157.738 14.128C156.394 13.264 154.778 12.832 152.89 12.832H148.042V33.088H152.89C154.81 33.088 156.426 32.656 157.738 31.792C159.082 30.896 160.106 29.68 160.81 28.144C161.514 26.576 161.866 24.832 161.866 22.912ZM198.482 33.088V40H174.53V5.92H198.05V12.832H182.402V19.456H195.842V25.84H182.402V33.088H198.482Z" fill="white"/>
<path d="M2.12 65V55.06H5.648C6.72133 55.06 7.61733 55.284 8.336 55.732C9.05467 56.1707 9.59133 56.768 9.946 57.524C10.31 58.2707 10.492 59.1013 10.492 60.016C10.492 61.024 10.2913 61.9013 9.89 62.648C9.498 63.3947 8.938 63.9733 8.21 64.384C7.482 64.7947 6.628 65 5.648 65H2.12ZM8.896 60.016C8.896 59.316 8.76533 58.7 8.504 58.168C8.252 57.6267 7.88333 57.2067 7.398 56.908C6.922 56.6 6.33867 56.446 5.648 56.446H3.688V63.614H5.648C6.348 63.614 6.936 63.4553 7.412 63.138C7.89733 62.8207 8.266 62.3913 8.518 61.85C8.77 61.3087 8.896 60.6973 8.896 60.016ZM18.3015 65V55.06H22.6275C23.0755 55.06 23.4862 55.1533 23.8595 55.34C24.2328 55.5267 24.5548 55.774 24.8255 56.082C25.1055 56.39 25.3202 56.7353 25.4695 57.118C25.6282 57.5007 25.7075 57.8927 25.7075 58.294C25.7075 58.7327 25.6282 59.1527 25.4695 59.554C25.3108 59.9553 25.0822 60.3007 24.7835 60.59C24.4942 60.8793 24.1535 61.0893 23.7615 61.22L26.0995 65H24.3355L22.1795 61.542H19.8695V65H18.3015ZM19.8695 60.156H22.6135C22.9028 60.156 23.1595 60.072 23.3835 59.904C23.6075 59.736 23.7848 59.512 23.9155 59.232C24.0462 58.9427 24.1115 58.63 24.1115 58.294C24.1115 57.9487 24.0368 57.6407 23.8875 57.37C23.7382 57.09 23.5422 56.866 23.2995 56.698C23.0662 56.53 22.8095 56.446 22.5295 56.446H19.8695V60.156ZM33.7173 65V55.06H35.2853V65H33.7173ZM44.3218 55.06L47.3178 63.082L50.2998 55.06H51.9658L48.0598 65H46.5758L42.6558 55.06H44.3218ZM59.3401 65V55.06H60.9081V65H59.3401ZM70.8825 57.972V65H69.3145V55.06H70.6025L76.2305 62.242V55.074H77.8125V65H76.4405L70.8825 57.972ZM90.267 65.07C89.6136 65.07 89.0023 64.9347 88.433 64.664C87.8636 64.3933 87.3643 64.02 86.935 63.544C86.515 63.068 86.1836 62.5267 85.941 61.92C85.7076 61.3133 85.591 60.6693 85.591 59.988C85.591 59.3067 85.7076 58.6673 85.941 58.07C86.1836 57.4727 86.515 56.9407 86.935 56.474C87.3643 56.0073 87.8636 55.6433 88.433 55.382C89.0116 55.1207 89.6416 54.99 90.323 54.99C91.2656 54.99 92.059 55.1907 92.703 55.592C93.3563 55.984 93.8463 56.5067 94.173 57.16L92.969 58.028C92.7076 57.4867 92.3343 57.0807 91.849 56.81C91.373 56.5393 90.8503 56.404 90.281 56.404C89.8143 56.404 89.3896 56.502 89.007 56.698C88.6243 56.894 88.293 57.1647 88.013 57.51C87.7423 57.846 87.537 58.2333 87.397 58.672C87.257 59.1013 87.187 59.554 87.187 60.03C87.187 60.534 87.2663 61.0053 87.425 61.444C87.5836 61.8827 87.8076 62.27 88.097 62.606C88.3863 62.9327 88.727 63.1893 89.119 63.376C89.511 63.5627 89.9356 63.656 90.393 63.656C90.9343 63.656 91.4476 63.5207 91.933 63.25C92.4276 62.97 92.8896 62.5547 93.319 62.004V63.6C92.451 64.58 91.4336 65.07 90.267 65.07ZM93.165 61.136H91.079V59.974H94.481V65H93.165V61.136ZM117.928 57.398C117.835 57.2953 117.7 57.188 117.522 57.076C117.345 56.9547 117.135 56.8427 116.892 56.74C116.65 56.6373 116.388 56.5533 116.108 56.488C115.828 56.4227 115.539 56.39 115.24 56.39C114.587 56.39 114.102 56.5113 113.784 56.754C113.467 56.9967 113.308 57.3327 113.308 57.762C113.308 58.0793 113.397 58.3313 113.574 58.518C113.752 58.6953 114.022 58.8447 114.386 58.966C114.75 59.0873 115.208 59.218 115.758 59.358C116.43 59.5167 117.014 59.708 117.508 59.932C118.003 60.1467 118.381 60.436 118.642 60.8C118.904 61.164 119.034 61.6447 119.034 62.242C119.034 62.746 118.941 63.18 118.754 63.544C118.568 63.908 118.306 64.2067 117.97 64.44C117.634 64.664 117.247 64.832 116.808 64.944C116.37 65.0467 115.898 65.098 115.394 65.098C114.9 65.098 114.405 65.0467 113.91 64.944C113.425 64.8413 112.958 64.692 112.51 64.496C112.072 64.2907 111.666 64.0433 111.292 63.754L112.006 62.41C112.128 62.5313 112.3 62.6667 112.524 62.816C112.758 62.956 113.024 63.0913 113.322 63.222C113.63 63.3527 113.962 63.4647 114.316 63.558C114.68 63.642 115.049 63.684 115.422 63.684C116.048 63.684 116.524 63.5767 116.85 63.362C117.186 63.138 117.354 62.8207 117.354 62.41C117.354 62.074 117.247 61.808 117.032 61.612C116.818 61.4067 116.505 61.234 116.094 61.094C115.684 60.954 115.194 60.814 114.624 60.674C113.971 60.4967 113.425 60.3053 112.986 60.1C112.548 59.8853 112.216 59.6147 111.992 59.288C111.778 58.952 111.67 58.5273 111.67 58.014C111.67 57.3607 111.829 56.81 112.146 56.362C112.464 55.9047 112.893 55.564 113.434 55.34C113.985 55.1067 114.601 54.99 115.282 54.99C115.73 54.99 116.155 55.0413 116.556 55.144C116.958 55.2373 117.331 55.368 117.676 55.536C118.031 55.704 118.353 55.8953 118.642 56.11L117.928 57.398ZM126.137 59.96C126.137 59.3533 126.244 58.7607 126.459 58.182C126.674 57.594 126.986 57.062 127.397 56.586C127.817 56.1007 128.326 55.718 128.923 55.438C129.52 55.1487 130.197 55.004 130.953 55.004C131.849 55.004 132.624 55.2093 133.277 55.62C133.93 56.0213 134.416 56.5393 134.733 57.174L133.501 58C133.314 57.5987 133.076 57.2813 132.787 57.048C132.507 56.8147 132.199 56.6513 131.863 56.558C131.536 56.4647 131.214 56.418 130.897 56.418C130.374 56.418 129.917 56.5253 129.525 56.74C129.133 56.9453 128.802 57.2207 128.531 57.566C128.27 57.9113 128.069 58.2987 127.929 58.728C127.798 59.1573 127.733 59.5867 127.733 60.016C127.733 60.492 127.812 60.954 127.971 61.402C128.13 61.8407 128.349 62.2327 128.629 62.578C128.918 62.914 129.259 63.18 129.651 63.376C130.043 63.572 130.472 63.67 130.939 63.67C131.256 63.67 131.588 63.614 131.933 63.502C132.278 63.39 132.596 63.2173 132.885 62.984C133.184 62.7413 133.417 62.424 133.585 62.032L134.887 62.774C134.682 63.2687 134.36 63.6887 133.921 64.034C133.492 64.3793 133.006 64.6407 132.465 64.818C131.933 64.9953 131.406 65.084 130.883 65.084C130.183 65.084 129.544 64.9393 128.965 64.65C128.386 64.3513 127.887 63.9593 127.467 63.474C127.047 62.9793 126.72 62.4287 126.487 61.822C126.254 61.206 126.137 60.5853 126.137 59.96ZM150.659 55.06V65H149.077V60.618H144.065V65H142.497V55.06H144.065V59.218H149.077V55.06H150.659ZM163.192 65.07C162.473 65.07 161.824 64.93 161.246 64.65C160.667 64.37 160.168 63.992 159.748 63.516C159.328 63.0307 159.001 62.4893 158.768 61.892C158.544 61.2853 158.432 60.6647 158.432 60.03C158.432 59.3673 158.553 58.7373 158.796 58.14C159.038 57.5333 159.374 56.9967 159.804 56.53C160.233 56.054 160.737 55.6807 161.316 55.41C161.904 55.13 162.538 54.99 163.22 54.99C163.929 54.99 164.573 55.1347 165.152 55.424C165.74 55.7133 166.239 56.1007 166.65 56.586C167.07 57.0713 167.392 57.6127 167.616 58.21C167.849 58.8073 167.966 59.4187 167.966 60.044C167.966 60.7067 167.844 61.3413 167.602 61.948C167.368 62.5453 167.037 63.082 166.608 63.558C166.178 64.0247 165.67 64.3933 165.082 64.664C164.503 64.9347 163.873 65.07 163.192 65.07ZM160.028 60.03C160.028 60.4967 160.102 60.9493 160.252 61.388C160.401 61.8267 160.611 62.2187 160.882 62.564C161.162 62.9 161.498 63.166 161.89 63.362C162.282 63.558 162.72 63.656 163.206 63.656C163.71 63.656 164.158 63.5533 164.55 63.348C164.942 63.1427 165.268 62.8673 165.53 62.522C165.8 62.1673 166.006 61.7753 166.146 61.346C166.286 60.9073 166.356 60.4687 166.356 60.03C166.356 59.5633 166.281 59.1153 166.132 58.686C165.992 58.2473 165.782 57.86 165.502 57.524C165.222 57.1787 164.886 56.908 164.494 56.712C164.111 56.516 163.682 56.418 163.206 56.418C162.702 56.418 162.254 56.5207 161.862 56.726C161.47 56.9313 161.138 57.2067 160.868 57.552C160.597 57.8973 160.387 58.2847 160.238 58.714C160.098 59.1433 160.028 59.582 160.028 60.03ZM179.879 65.07C179.16 65.07 178.512 64.93 177.933 64.65C177.354 64.37 176.855 63.992 176.435 63.516C176.015 63.0307 175.688 62.4893 175.455 61.892C175.231 61.2853 175.119 60.6647 175.119 60.03C175.119 59.3673 175.24 58.7373 175.483 58.14C175.726 57.5333 176.062 56.9967 176.491 56.53C176.92 56.054 177.424 55.6807 178.003 55.41C178.591 55.13 179.226 54.99 179.907 54.99C180.616 54.99 181.26 55.1347 181.839 55.424C182.427 55.7133 182.926 56.1007 183.337 56.586C183.757 57.0713 184.079 57.6127 184.303 58.21C184.536 58.8073 184.653 59.4187 184.653 60.044C184.653 60.7067 184.532 61.3413 184.289 61.948C184.056 62.5453 183.724 63.082 183.295 63.558C182.866 64.0247 182.357 64.3933 181.769 64.664C181.19 64.9347 180.56 65.07 179.879 65.07ZM176.715 60.03C176.715 60.4967 176.79 60.9493 176.939 61.388C177.088 61.8267 177.298 62.2187 177.569 62.564C177.849 62.9 178.185 63.166 178.577 63.362C178.969 63.558 179.408 63.656 179.893 63.656C180.397 63.656 180.845 63.5533 181.237 63.348C181.629 63.1427 181.956 62.8673 182.217 62.522C182.488 62.1673 182.693 61.7753 182.833 61.346C182.973 60.9073 183.043 60.4687 183.043 60.03C183.043 59.5633 182.968 59.1153 182.819 58.686C182.679 58.2473 182.469 57.86 182.189 57.524C181.909 57.1787 181.573 56.908 181.181 56.712C180.798 56.516 180.369 56.418 179.893 56.418C179.389 56.418 178.941 56.5207 178.549 56.726C178.157 56.9313 177.826 57.2067 177.555 57.552C177.284 57.8973 177.074 58.2847 176.925 58.714C176.785 59.1433 176.715 59.582 176.715 60.03ZM192.436 65V55.06H194.004V63.614H199.338V65H192.436Z" fill="white"/>
</svg>
