<svg width="26" height="30" viewBox="0 0 26 30" fill="none" xmlns="http://www.w3.org/2000/svg">
<path fill-rule="evenodd" clip-rule="evenodd" d="M20.8592 6.6944C19.7259 5.83726 18.447 5.16323 17.0677 4.71872C15.8313 4.31976 14.5127 4.10388 13.1442 4.10388C11.7758 4.10388 10.4581 4.31885 9.22079 4.71872C7.84057 5.16323 6.56262 5.83635 5.42934 6.6944C2.30813 9.05721 0.287598 12.8173 0.287598 17.052C0.287598 19.7308 1.09617 22.2202 2.47906 24.2843V24.2852C2.52519 24.3526 2.57132 24.4209 2.61925 24.4874C2.79109 24.7352 2.97198 24.9765 3.16282 25.2115C3.20533 25.2653 3.24965 25.3181 3.29396 25.3719C3.37537 25.4711 3.46038 25.5686 3.54631 25.6652C3.59876 25.7244 3.65122 25.7827 3.70548 25.8409C3.7281 25.8664 3.75161 25.892 3.77513 25.9166C3.82035 25.9658 3.86648 26.014 3.91441 26.0623C3.93883 26.0896 3.96506 26.1151 3.99039 26.1415C4.08083 26.2354 4.17489 26.3265 4.26895 26.4166C4.30785 26.4549 4.34764 26.4932 4.38834 26.5314C4.67233 26.7974 4.96718 27.0515 5.27469 27.2901C5.32444 27.3293 5.37418 27.3676 5.42301 27.4049C5.51347 27.4732 5.60479 27.5416 5.69796 27.6071C5.83002 27.7028 5.96478 27.7948 6.10134 27.884C6.14386 27.9132 6.18817 27.9414 6.23247 27.9696C6.2777 27.9997 6.32564 28.0298 6.37271 28.0599C6.46767 28.119 6.56441 28.1773 6.65942 28.2338C6.85203 28.3477 7.04833 28.4561 7.24729 28.5599C7.3079 28.5918 7.36759 28.6228 7.42907 28.6528C7.46796 28.6729 7.50869 28.6929 7.54753 28.712C7.62261 28.7485 7.6986 28.7849 7.7746 28.8186C7.78002 28.8222 7.78635 28.8259 7.79264 28.8286C7.86684 28.8632 7.941 28.896 8.01607 28.9288C8.01786 28.9297 8.0197 28.9307 8.02057 28.9316C8.06488 28.9498 8.1074 28.9689 8.15171 28.9871C8.22949 29.0208 8.30819 29.0527 8.38598 29.0846C8.4077 29.0937 8.43029 29.1028 8.45201 29.111C8.54517 29.1465 8.6365 29.182 8.72967 29.2158C8.77219 29.2312 8.81194 29.2467 8.85354 29.2613C8.93766 29.2913 9.02092 29.3196 9.10412 29.3469C9.14659 29.3606 9.18732 29.3742 9.22984 29.3879C9.31304 29.4152 9.39803 29.4416 9.48123 29.4671C9.52196 29.479 9.56085 29.4908 9.60153 29.5018C9.65673 29.5182 9.71008 29.5327 9.76436 29.5473C9.86294 29.5746 9.96239 29.602 10.0637 29.6256C10.0981 29.6338 10.1316 29.642 10.165 29.6511C10.2554 29.673 10.3477 29.6939 10.4391 29.7131C10.4779 29.7222 10.5159 29.7295 10.5539 29.7376C10.6091 29.7495 10.6624 29.7595 10.7158 29.7704C10.7845 29.7832 10.8524 29.796 10.9211 29.8078C10.9907 29.8197 11.0595 29.8306 11.1264 29.8424C11.3055 29.8716 11.4855 29.8962 11.6646 29.9162C11.7044 29.9217 11.7424 29.9262 11.7813 29.9289C11.8862 29.9399 11.9911 29.9499 12.0951 29.9581C12.1412 29.9626 12.1892 29.9654 12.2353 29.9681C12.3167 29.9745 12.3981 29.979 12.4804 29.9836C12.5175 29.9863 12.5555 29.9872 12.5916 29.9881C12.6821 29.9927 12.7743 29.9954 12.8657 29.9963C12.9019 29.9973 12.939 29.9982 12.9751 29.9982C13.0303 30 13.0855 30 13.1406 30C13.1958 30 13.251 30 13.3052 29.9982C13.3414 29.9982 13.3794 29.9973 13.4165 29.9963C13.5078 29.9945 13.5992 29.9918 13.6896 29.9881C13.7267 29.9872 13.7647 29.9854 13.8018 29.9836C13.8841 29.979 13.9645 29.9745 14.046 29.9681C14.093 29.9654 14.14 29.9626 14.1871 29.9581C14.2911 29.9499 14.3969 29.9399 14.5009 29.9289C14.5389 29.9253 14.5778 29.9208 14.6167 29.9162C14.7967 29.8962 14.9757 29.8716 15.1548 29.8424C15.2235 29.8315 15.2923 29.8206 15.3602 29.8078C15.4289 29.796 15.4976 29.7832 15.5645 29.7704C15.6179 29.7604 15.6712 29.7504 15.7273 29.7376C15.7644 29.7304 15.8033 29.7222 15.8413 29.7131C15.9326 29.6939 16.0258 29.673 16.1171 29.6511C16.1506 29.6429 16.1832 29.6347 16.2176 29.6256C16.3179 29.602 16.4174 29.5755 16.516 29.5473C16.5703 29.5327 16.6264 29.5182 16.6788 29.5018C16.7204 29.4908 16.7593 29.479 16.7991 29.4671C16.8832 29.4416 16.9683 29.4161 17.0532 29.3879C17.0948 29.3742 17.1364 29.3606 17.1772 29.3469C17.2622 29.3196 17.3445 29.2913 17.4286 29.2613C17.4702 29.2467 17.5109 29.2312 17.5534 29.2158C17.6447 29.182 17.7379 29.1465 17.8292 29.111C17.8645 29.0964 17.9025 29.0818 17.9378 29.0673C18.0084 29.039 18.0771 29.0099 18.1485 28.9798C18.1919 28.9607 18.2362 28.9416 18.2788 28.9234C18.2969 28.9161 18.314 28.9079 18.3294 28.9006C18.4099 28.865 18.4877 28.8295 18.5655 28.7931C18.5691 28.7922 18.5709 28.7903 18.5754 28.7885C18.6577 28.7494 18.74 28.7084 18.8242 28.6683C18.8277 28.6665 18.8323 28.6647 18.835 28.6638C18.8793 28.641 18.9227 28.6191 18.9661 28.5964C19.0385 28.5599 19.1117 28.5216 19.1823 28.4825C19.1959 28.4761 19.2085 28.4697 19.2212 28.4624C19.2944 28.4215 19.3686 28.3814 19.441 28.3404C19.4962 28.3085 19.5522 28.2766 19.6065 28.2447C19.7024 28.1883 19.7982 28.1309 19.8923 28.0717C19.9592 28.0289 20.028 27.986 20.094 27.9423C20.1636 27.8977 20.2323 27.8522 20.2993 27.8066C20.3509 27.7711 20.4042 27.7365 20.4539 27.7001C20.4874 27.6782 20.5182 27.6554 20.5507 27.6326C20.6023 27.5962 20.652 27.5598 20.7017 27.5215C20.7614 27.4787 20.8184 27.435 20.8772 27.3913C21.1332 27.1973 21.381 26.9932 21.6216 26.78C21.6786 26.7309 21.7328 26.6817 21.7871 26.6307C21.8703 26.5542 21.9517 26.4776 22.034 26.3984C22.1145 26.321 22.1959 26.2408 22.2746 26.1606C22.3316 26.1024 22.3876 26.0432 22.4446 25.984C22.4754 25.9521 22.5043 25.9202 22.5351 25.8883C22.5767 25.8428 22.6174 25.7972 22.6599 25.7517C22.7124 25.6943 22.763 25.636 22.8127 25.5777C22.8679 25.5167 22.9186 25.4557 22.9719 25.3928C23.0189 25.3364 23.0669 25.2798 23.1112 25.2225C23.1628 25.1587 23.2152 25.094 23.2659 25.0294C23.2858 25.0039 23.3048 24.9792 23.3229 24.9537C23.3771 24.8854 23.4287 24.8162 23.4793 24.7452C23.5345 24.6723 23.586 24.5985 23.6385 24.5247C23.6936 24.4464 23.7498 24.3653 23.804 24.2852V24.2843C25.1878 22.2202 25.9955 19.7308 25.9955 17.052C26 12.8173 23.9803 9.0563 20.8592 6.6944ZM9.06068 26.5615C6.66391 25.5158 4.74017 23.5774 3.70277 21.1636C4.28433 20.7637 4.98527 20.5196 5.73685 20.4941C5.783 20.4923 5.82639 20.4914 5.87254 20.4914C6.08509 20.4914 6.29217 20.5087 6.49567 20.5424C7.31061 20.6763 8.0405 21.0661 8.59853 21.6291C9.29674 22.3314 9.72817 23.3024 9.72817 24.3762C9.72817 25.186 9.48215 25.9384 9.06068 26.5615ZM17.226 26.5615C16.8045 25.9393 16.5585 25.186 16.5585 24.3762C16.5585 23.3024 16.9899 22.3314 17.6873 21.6291C18.2426 21.0698 18.9634 20.6818 19.7702 20.5452C19.98 20.5096 20.1944 20.4914 20.4142 20.4914C20.4504 20.4914 20.4883 20.4923 20.5245 20.4932C21.287 20.5141 21.9951 20.7592 22.5839 21.1636C21.5474 23.5774 19.6237 25.5148 17.226 26.5615ZM21.6261 15.9052C20.936 15.6629 20.2351 15.4497 19.5215 15.2666C19.2393 15.1938 18.9553 15.1263 18.6713 15.0626L17.8211 14.8914C17.1148 14.7593 16.3993 14.6582 15.6758 14.5862C15.4262 14.5616 15.1747 14.5406 14.9224 14.5233C14.8727 14.5197 14.8229 14.5161 14.7731 14.5133C14.6655 14.5069 14.5588 14.5006 14.4503 14.4951C14.018 14.4733 13.5829 14.4623 13.1442 14.4623C12.6206 14.4623 12.1014 14.4787 11.5859 14.5097H11.585C10.5268 14.5726 9.4867 14.7001 8.46647 14.8896L7.61627 15.0644C7.32957 15.1263 7.04741 15.1938 6.76612 15.2666C6.04349 15.4524 5.33168 15.6692 4.63526 15.9152C4.0347 16.1265 3.44501 16.3606 2.86797 16.6147C2.97922 13.9058 4.12424 11.4665 5.91684 9.68479C6.66391 8.94064 7.52587 8.31123 8.46918 7.82572C8.74592 7.68268 9.0272 7.55336 9.31754 7.43679C9.59611 7.3229 9.87832 7.22272 10.1687 7.13711C10.6399 6.99317 11.1246 6.88206 11.6212 6.8092C12.1186 6.73447 12.6269 6.69622 13.1452 6.69622C14.1798 6.69622 15.1792 6.84927 16.1217 7.13529C16.4093 7.22363 16.6933 7.32381 16.971 7.43679H16.9718C17.2622 7.55336 17.5444 7.68359 17.8211 7.82663C18.7653 8.31214 19.6246 8.94064 20.3726 9.6857H20.3734C21.2679 10.5774 22.0033 11.6323 22.5278 12.8037C23.0515 13.975 23.3653 15.2612 23.4214 16.6156C22.8317 16.356 22.2348 16.1192 21.6261 15.9052Z" fill="#0073E6"/>
<path d="M17.0677 4.71872C18.447 5.16323 19.7258 5.83726 20.8591 6.6944C21.3187 7.04218 21.7544 7.42024 22.1632 7.82572L22.1631 12.069C21.6817 11.1889 21.0768 10.3869 20.3735 9.68571H20.3725C19.6245 8.94064 18.7654 8.31214 17.8211 7.82663C17.5443 7.68359 17.2622 7.55336 16.9718 7.43679H16.9709C16.6933 7.32381 16.4093 7.22363 16.1216 7.13529C15.1792 6.84927 14.1798 6.69622 13.1451 6.69622C12.6269 6.69622 12.1186 6.73447 11.6211 6.8092C11.1246 6.88206 10.6398 6.99317 10.1686 7.13711C9.87828 7.22272 9.59613 7.3229 9.31755 7.43679C9.02721 7.55336 8.74593 7.68268 8.46919 7.82572C7.52582 8.31123 6.66392 8.94064 5.91686 9.68479C5.21168 10.3857 4.60672 11.1883 4.12549 12.069V7.82572C4.5343 7.42029 4.96989 7.04224 5.42936 6.6944C6.56263 5.83635 7.84058 5.16323 9.22075 4.71872C10.458 4.31885 11.7758 4.10388 13.1442 4.10388C14.5127 4.10388 15.8313 4.31976 17.0677 4.71872Z" fill="white"/>
<path d="M21.1793 7.41269L26 4.98521L13.1442 0L0.288517 4.98612V10.0324C0.116673 10.1335 0 10.3211 0 10.5351C0 10.7501 0.116673 10.9378 0.288517 11.038V11.6974H0.865551V11.038C1.03739 10.9369 1.15407 10.7501 1.15407 10.5351C1.15407 10.3202 1.03739 10.1335 0.865551 10.0324V5.27669L5.1101 7.4136V10.6064C6.5266 9.3382 8.14835 8.40729 8.78215 8.10038C10.3663 7.4271 11.6547 7.13696 13.1442 7.13696C14.6339 7.13696 16.28 7.49717 17.5073 8.1013C18.3004 8.47736 20.1452 9.53277 21.1793 10.7456V7.41269Z" fill="#191825"/>
<path fill-rule="evenodd" clip-rule="evenodd" d="M6.81454 11.1206C5.64969 12.3339 4.82221 13.8787 4.4873 15.6011C4.49543 15.5978 4.50356 15.5953 4.51169 15.5921C4.88561 13.9131 5.7928 12.4362 7.04378 11.3507L6.81454 11.1206Z" fill="#191825"/>
<path fill-rule="evenodd" clip-rule="evenodd" d="M7.27119 11.1599C8.0467 10.5369 8.94164 10.0588 9.91626 9.76741L9.65615 9.13538C8.67341 9.56598 7.78247 10.1702 7.02246 10.9102L7.27119 11.1599Z" fill="#191825"/>
<path fill-rule="evenodd" clip-rule="evenodd" d="M10.2021 9.6877C10.8248 9.52725 11.4776 9.44207 12.1498 9.44207C12.4497 9.44207 12.7456 9.45927 13.0374 9.49205V8.40076C11.9417 8.41876 10.8931 8.63738 9.92822 9.02213L10.2021 9.6877Z" fill="#191825"/>
<path fill-rule="evenodd" clip-rule="evenodd" d="M13.333 8.40002V9.53059C14.2418 9.66971 15.0994 9.96527 15.8781 10.3909L16.4414 9.02134C15.4765 8.63659 14.4287 8.41802 13.333 8.40002Z" fill="#191825"/>
<path fill-rule="evenodd" clip-rule="evenodd" d="M16.7139 9.13428L16.1367 10.5382C16.8715 10.977 17.5292 11.5337 18.0844 12.1821L19.3484 10.9091C18.5875 10.169 17.6974 9.56488 16.7139 9.13428Z" fill="#191825"/>
<path fill-rule="evenodd" clip-rule="evenodd" d="M19.556 11.1206L18.2725 12.4133C18.8496 13.1419 19.2658 13.9474 19.5747 14.8217C19.5804 14.8389 19.5861 14.857 19.5917 14.8741C20.3721 15.0813 21.1354 15.3244 21.8825 15.6019C21.5565 13.9213 20.7379 12.3511 19.556 11.1206Z" fill="#191825"/>
<path fill-rule="evenodd" clip-rule="evenodd" d="M13 13.849L14.8571 10.7999L14.2096 14.3999C14.0733 14.2069 13.8906 14.0499 13.6707 13.9495C13.4508 13.8498 13.2206 13.8194 13 13.849Z" fill="#191825"/>
<path fill-rule="evenodd" clip-rule="evenodd" d="M14.0836 13.9039C15.198 14.3685 15.7271 15.6555 15.2658 16.7777C14.8045 17.8999 13.5265 18.4328 12.4123 17.9682C11.298 17.5037 10.7689 16.2166 11.2301 15.0944C11.6914 13.9723 12.9694 13.4394 14.0836 13.9039Z" fill="white"/>
<path fill-rule="evenodd" clip-rule="evenodd" d="M13.2483 14.6809C13.9356 14.6809 14.4937 15.2429 14.4937 15.9361C14.4937 16.6284 13.9356 17.1904 13.2483 17.1904C12.56 17.1904 12.0029 16.6284 12.002 15.9361C12.002 15.2429 12.56 14.6818 13.2483 14.6809Z" fill="#191825"/>
</svg>
